<?xml version="1.0" encoding="UTF-8"?>
<svg id="Camada_1" data-name="Camada 1" xmlns="http://www.w3.org/2000/svg" xmlns:xlink="http://www.w3.org/1999/xlink" viewBox="0 0 1080 1080">
  <defs>
    <style>
      .cls-1 {
        fill: url(#Gradiente_sem_nome_58);
      }

      .cls-2 {
        opacity: .3;
      }

      .cls-3 {
        fill: url(#Gradiente_sem_nome_58-2);
      }

      .cls-4 {
        fill: none;
        stroke: #fff;
        stroke-miterlimit: 10;
      }

      .cls-5 {
        opacity: .2;
      }
    </style>
    <linearGradient id="Gradiente_sem_nome_58" data-name="Gradiente sem nome 58" x1="632.66" y1="842.45" x2="844.84" y2="842.45" gradientUnits="userSpaceOnUse">
      <stop offset=".19" stop-color="#0c0e0a"/>
      <stop offset="1" stop-color="#fff"/>
    </linearGradient>
    <linearGradient id="Gradiente_sem_nome_58-2" data-name="Gradiente sem nome 58" x1="28.33" y1="523.54" x2="1009.1" y2="523.54" xlink:href="#Gradiente_sem_nome_58"/>
  </defs>
  <g class="cls-5">
    <g>
      <path class="cls-1" d="M844.84,818.49l-80.06,106.61c-47.84-37.24-92.1-78.86-132.12-124.23l145.04-41.06c21.29,20.73,43.7,40.35,67.14,58.69Z"/>
      <path class="cls-3" d="M940.92,234.98c-64.43,144.64-168.32,267.92-297.9,356.1-74-121.6-118.17-263.29-122.56-414.95h-139.62c-32.29,225.58-153.57,422.53-327.16,554.01-8.29,6.46-16.75,12.6-25.36,18.58l78.54,107.8,9.65,13.16c16.58.88,33.25,1.28,50.07,1.28,157.48,0,306.35-37.16,438.15-103.1,40.51-20.25,79.34-43.22,116.34-68.65,116.73-80.14,215.29-184.83,288.01-306.75l-68.18-157.48ZM249.84,733.57c76.63-79.9,139.86-172.63,186.11-274.77,23.04,69.93,53.82,136.43,91.22,198.46-85.56,40.35-179.01,66.74-277.32,76.31Z"/>
    </g>
  </g>
  <g class="cls-2">
    <g>
      <path class="cls-4" d="M844.84,818.49l-80.06,106.61c-47.84-37.24-92.1-78.86-132.12-124.23l145.04-41.06c21.29,20.73,43.7,40.35,67.14,58.69Z"/>
      <path class="cls-4" d="M940.92,234.98c-64.43,144.64-168.32,267.92-297.9,356.1-74-121.6-118.17-263.29-122.56-414.95h-139.62c-32.29,225.58-153.57,422.53-327.16,554.01-8.29,6.46-16.75,12.6-25.36,18.58l78.54,107.8,9.65,13.16c16.58.88,33.25,1.28,50.07,1.28,157.48,0,306.35-37.16,438.15-103.1,40.51-20.25,79.34-43.22,116.34-68.65,116.73-80.14,215.29-184.83,288.01-306.75l-68.18-157.48ZM249.84,733.57c76.63-79.9,139.86-172.63,186.11-274.77,23.04,69.93,53.82,136.43,91.22,198.46-85.56,40.35-179.01,66.74-277.32,76.31Z"/>
    </g>
  </g>
</svg>